<?xml version="1.0" encoding="UTF-8"?>
<svg xmlns="http://www.w3.org/2000/svg" version="1.1" viewBox="0 0 200 200">
  <defs>
    <style>
      .cls-1 {
        fill: #3484e4;
      }

      .cls-2 {
        fill: #f5f5f5;
      }

      .cls-3 {
        fill: #34e4e4;
      }

      .cls-4 {
        fill: #f6d32d;
      }

      .cls-5 {
        fill: #2ec27e;
      }

      .cls-6 {
        fill: #ffa348;
      }

      .cls-7 {
        fill: #a83bf9;
      }

      .cls-8 {
        display: none;
        fill: #3491fa;
      }

      .cls-9 {
        fill: #e43434;
      }

      .cls-10 {
        fill: #f234aa;
      }
    </style>
  </defs>
  <!-- Generator: Adobe Illustrator 28.6.0, SVG Export Plug-In . SVG Version: 1.2.0 Build 709)  -->
  <g>
    <g id="_图层_1" data-name="图层_1">
      <g id="_图层_1-2" data-name="_图层_1">
        <g id="_图层_1-2">
          <g id="_图层_1-2-2" data-name="_图层_1-2">
            <path class="cls-8" d="M20.6-19.5h157.8c26.3,0,39.4,13.4,39.4,40.1v160.2c0,26.7-13.1,40.1-39.4,40.1H20.6c-26.3,0-39.4-13.2-39.4-39.9V20.5C-18.8-6.2-5.7-19.5,20.6-19.5Z"/>
            <g id="_图层_2">
              <path class="cls-9" d="M17.4,4.5h23.3c6.5,0,11.7,5.4,11.7,12.1v23.9c0,6.6-5.3,12.1-11.7,12.1h-23.3c-6.5,0-11.7-5.4-11.7-12.1v-23.9c0-6.6,5.3-12.1,11.7-12.1Z"/>
            </g>
            <path class="cls-3" d="M87.6,4.5h23.4c6.6,0,11.8,5.4,11.8,12.1v23.8c0,6.6-5.3,12.1-11.8,12.1h-23.4c-6.6,0-11.8-5.4-11.8-12.1v-23.8c0-6.6,5.3-12.1,11.8-12.1Z"/>
            <g id="_图层_3">
              <path class="cls-6" d="M158.3,4.5h24.1c6.7,0,11.9,5.4,11.9,12.1v23.9c0,6.6-5.4,12.1-11.9,12.1h-24.1c-6.7,0-11.9-5.4-11.9-12.1v-23.9c0-6.6,5.4-12.1,11.9-12.1Z"/>
            </g>
            <g id="_图层_4">
              <path class="cls-4" d="M17.4,77h23.3c6.5,0,11.7,5.4,11.7,11.9v23.7c0,6.6-5.3,11.9-11.7,11.9h-23.3c-6.5,0-11.7-5.4-11.7-11.9v-23.7c0-6.6,5.3-11.9,11.7-11.9Z"/>
            </g>
            <g id="_图层_5">
              <path class="cls-5" d="M87.8,77h24.2c6.7,0,12,5.4,12,12.1v24.1c0,6.6-5.5,12.1-12,12.1h-24.2c-6.7,0-12-5.4-12-12.1v-24.1c0-6.6,5.5-12.1,12-12.1Z"/>
            </g>
            <g id="_图层_6">
              <path class="cls-1" d="M158,76.5h24.2c6.7,0,12,5.4,12,12.1v23.9c0,6.6-5.5,12.1-12,12.1h-24.2c-6.7,0-12-5.4-12-12.1v-23.9c0-6.6,5.5-12.1,12-12.1Z"/>
            </g>
            <path class="cls-7" d="M17.4,148.1h23.3c6.5,0,11.7,5.4,11.7,12.1v24.1c0,6.6-5.3,12.1-11.7,12.1h-23.3c-6.5,0-11.7-5.4-11.7-12.1v-24.1c0-6.6,5.3-12.1,11.7-12.1Z"/>
            <g id="_图层_7">
              <path class="cls-10" d="M87.8,148.1h24.2c6.7,0,12,5.4,12,12.1v24.1c0,6.6-5.5,12.1-12,12.1h-24.2c-6.7,0-12-5.4-12-12.1v-24.1c0-6.6,5.5-12.1,12-12.1Z"/>
            </g>
            <g id="_图层_8">
              <path class="cls-2" d="M182.2,148.1h-24.2c-6.7,0-12,5.4-12,12.1v24.1c0,6.6,5.5,12.1,12,12.1h24.2c6.7,0,12-5.4,12-12.1v-24.1c0-6.6-5.5-12.1-12-12.1Z"/>
            </g>
          </g>
        </g>
      </g>
    </g>
  </g>
</svg>
