<?xml version="1.0" encoding="UTF-8"?>
<svg id="_图层_1" data-name="图层_1" xmlns="http://www.w3.org/2000/svg" version="1.1" viewBox="0 0 200 200">
  <!-- Generator: Adobe Illustrator 29.0.1, SVG Export Plug-In . SVG Version: 2.1.0 Build 192)  -->
  <defs>
    <style>
      .st0 {
        fill: #3484e4;
      }

      .st1 {
        fill: #f234aa;
      }

      .st2 {
        fill: #34e4e4;
      }

      .st3 {
        fill: #f6d32d;
      }

      .st4 {
        fill: #2ec27e;
      }

      .st5 {
        display: none;
      }

      .st6 {
        fill: #e43434;
      }

      .st7 {
        fill: #fc9808;
      }

      .st8 {
        fill: #a83bf9;
      }
      .st9 {
        fill: #282828;
      }      
    </style>
  </defs>
  <path class="st5" d="M170.1,194.5c-.8,0-1.7,0-2.5-.1-.8,0-1.6-.2-2.5-.4-.8-.2-1.6-.3-2.4-.6-.8-.3-1.6-.5-2.4-.9-.8-.3-1.5-.7-2.2-1.1s-1.5-.8-2.2-1.3-1.4-.9-2-1.5c-.6-.5-1.3-1.1-1.9-1.7s-1.2-1.2-1.7-1.8c-.5-.6-1-1.3-1.5-2-.5-.7-.9-1.4-1.3-2.2s-.7-1.5-1.1-2.2c-.3-.8-.6-1.5-.9-2.4s-.4-1.6-.6-2.4-.3-1.6-.4-2.5c-.2-1.7-.2-3.3,0-5,0-.8.2-1.6.4-2.5.2-.8.3-1.6.6-2.4s.5-1.6.9-2.4.7-1.5,1.1-2.2.8-1.5,1.3-2.2.9-1.4,1.5-2c.5-.6,1.1-1.2,1.7-1.8s1.2-1.2,1.9-1.7c.6-.5,1.3-1,2-1.5.7-.5,1.4-.9,2.2-1.3s1.5-.7,2.2-1.1c.8-.3,1.6-.6,2.4-.9s1.6-.4,2.4-.6,1.6-.3,2.5-.4c1.7-.2,3.3-.2,5,0,.8,0,1.6.2,2.5.4.8.2,1.6.3,2.4.6.8.3,1.6.5,2.4.9.8.3,1.5.7,2.2,1.1s1.5.8,2.2,1.3,1.4.9,2,1.5c.6.5,1.3,1.1,1.9,1.7s1.2,1.2,1.7,1.8c.5.6,1,1.3,1.5,2,.5.7.9,1.4,1.3,2.2s.7,1.5,1.1,2.2c.3.8.6,1.5.9,2.4s.4,1.6.6,2.4.3,1.6.4,2.5c.2,1.7.2,3.3,0,5,0,.8-.2,1.6-.4,2.5-.2.8-.3,1.6-.6,2.4-.3.8-.5,1.6-.9,2.4-.3.8-.7,1.5-1.1,2.2s-.8,1.5-1.3,2.2-.9,1.4-1.5,2c-.5.6-1.1,1.2-1.7,1.8s-1.2,1.2-1.9,1.7c-.6.5-1.3,1-2,1.5-.7.5-1.4.9-2.2,1.3s-1.5.7-2.2,1.1c-.8.3-1.6.6-2.4.9s-1.6.4-2.4.6-1.6.3-2.5.4c-.8,0-1.7.1-2.5.1h0ZM100.9,194.5c-.8,0-1.7,0-2.5-.1-.8,0-1.6-.2-2.5-.4s-1.6-.3-2.4-.6c-.8-.3-1.6-.5-2.4-.9-.8-.3-1.5-.7-2.2-1.1s-1.5-.8-2.2-1.3-1.4-.9-2-1.5c-.6-.5-1.3-1.1-1.9-1.7s-1.2-1.2-1.7-1.8-1-1.3-1.5-2c-.5-.7-.9-1.4-1.3-2.2s-.7-1.5-1.1-2.2c-.3-.8-.6-1.5-.9-2.4s-.4-1.6-.6-2.4-.3-1.6-.4-2.5c-.2-1.7-.2-3.3,0-5,0-.8.2-1.6.4-2.5.2-.8.3-1.6.6-2.4.3-.8.5-1.6.9-2.4s.7-1.5,1.1-2.2.8-1.5,1.3-2.2.9-1.4,1.5-2c.5-.6,1.1-1.2,1.7-1.8s1.2-1.2,1.9-1.7c.6-.5,1.3-1,2-1.5s1.4-.9,2.2-1.3,1.5-.7,2.2-1.1c.8-.3,1.6-.6,2.4-.9s1.6-.4,2.4-.6c.8-.2,1.6-.3,2.5-.4,1.7-.2,3.3-.2,5,0,.8,0,1.6.2,2.5.4.8.2,1.6.3,2.4.6.8.3,1.6.5,2.4.9.8.3,1.5.7,2.2,1.1s1.5.8,2.2,1.3,1.4.9,2,1.5c.6.5,1.3,1.1,1.9,1.7s1.2,1.2,1.7,1.8c.5.6,1,1.3,1.5,2,.5.7.9,1.4,1.3,2.2s.7,1.5,1.1,2.2.6,1.5.9,2.4.4,1.6.6,2.4.3,1.6.4,2.5c.2,1.7.2,3.3,0,5,0,.8-.2,1.6-.4,2.5-.2.8-.3,1.6-.6,2.4-.3.8-.5,1.6-.9,2.4s-.7,1.5-1.1,2.2-.8,1.5-1.3,2.2-.9,1.4-1.5,2c-.5.6-1.1,1.2-1.7,1.8s-1.2,1.2-1.9,1.7c-.6.5-1.3,1-2,1.5-.7.5-1.4.9-2.2,1.3s-1.5.7-2.2,1.1c-.8.3-1.6.6-2.4.9s-1.6.4-2.4.6-1.6.3-2.5.4c-.8,0-1.7.1-2.5.1ZM31.8,194.5c-.8,0-1.7,0-2.5-.1-.8,0-1.6-.2-2.5-.4-.8-.2-1.6-.3-2.4-.6s-1.6-.5-2.4-.9c-.8-.3-1.5-.7-2.2-1.1s-1.5-.8-2.2-1.3-1.4-.9-2-1.5c-.6-.5-1.3-1.1-1.9-1.7s-1.2-1.2-1.7-1.8-1-1.3-1.5-2c-.5-.7-.9-1.4-1.3-2.2s-.7-1.5-1.1-2.2c-.3-.8-.6-1.5-.9-2.4s-.4-1.6-.6-2.4-.3-1.6-.4-2.5c-.2-1.7-.2-3.3,0-5,0-.8.2-1.6.4-2.5.2-.8.3-1.6.6-2.4.3-.8.5-1.6.9-2.4.3-.8.7-1.5,1.1-2.2s.8-1.5,1.3-2.2.9-1.4,1.5-2c.5-.6,1.1-1.2,1.7-1.8s1.2-1.2,1.9-1.7c.6-.5,1.3-1,2-1.5.7-.5,1.4-.9,2.2-1.3s1.5-.7,2.2-1.1c.8-.3,1.6-.6,2.4-.9s1.6-.4,2.4-.6,1.6-.3,2.5-.4c1.7-.2,3.3-.2,5,0,.8,0,1.6.2,2.5.4.8.2,1.6.3,2.4.6.8.3,1.6.5,2.4.9.8.3,1.5.7,2.2,1.1s1.5.8,2.2,1.3c.7.5,1.4.9,2,1.5.6.5,1.3,1.1,1.9,1.7s1.2,1.2,1.7,1.8,1,1.3,1.5,2,.9,1.4,1.3,2.2.7,1.5,1.1,2.2c.3.8.6,1.5.9,2.4s.4,1.6.6,2.4.3,1.6.4,2.5c.2,1.7.2,3.3,0,5,0,.8-.2,1.6-.4,2.5-.2.8-.3,1.6-.6,2.4-.3.8-.5,1.6-.9,2.4-.3.8-.7,1.5-1.1,2.2s-.8,1.5-1.3,2.2-.9,1.4-1.5,2c-.5.6-1.1,1.2-1.7,1.8s-1.2,1.2-1.9,1.7c-.6.5-1.3,1-2,1.5-.7.5-1.4.9-2.2,1.3s-1.5.7-2.2,1.1c-.8.3-1.6.6-2.4.9s-1.6.4-2.4.6-1.6.3-2.5.4c-.8,0-1.7.1-2.5.1ZM170.1,125.5c-.8,0-1.7,0-2.5-.1s-1.6-.2-2.5-.4c-.8-.2-1.6-.3-2.4-.6-.8-.3-1.6-.5-2.4-.9-.8-.3-1.5-.7-2.2-1.1s-1.5-.8-2.2-1.3-1.4-.9-2-1.5c-.6-.5-1.3-1.1-1.9-1.7s-1.2-1.2-1.7-1.8c-.5-.6-1-1.3-1.5-2-.5-.7-.9-1.4-1.3-2.2s-.7-1.5-1.1-2.2c-.3-.8-.6-1.5-.9-2.4s-.4-1.6-.6-2.4-.3-1.6-.4-2.5-.1-1.7-.1-2.5,0-1.7.1-2.5.2-1.6.4-2.5.3-1.6.6-2.4c.3-.8.5-1.6.9-2.4.3-.8.7-1.5,1.1-2.2s.8-1.5,1.3-2.2.9-1.4,1.5-2c.5-.6,1.1-1.2,1.7-1.8s1.2-1.2,1.9-1.7,1.3-1,2-1.5c.7-.5,1.4-.9,2.2-1.3s1.5-.7,2.2-1.1c.8-.3,1.6-.6,2.4-.9s1.6-.4,2.4-.6,1.6-.3,2.5-.4c1.7-.2,3.3-.2,5,0,.8,0,1.6.2,2.5.4.8.2,1.6.3,2.4.6.8.3,1.6.5,2.4.9.8.3,1.5.7,2.2,1.1s1.5.8,2.2,1.3,1.4.9,2,1.5c.6.5,1.3,1.1,1.9,1.7s1.2,1.2,1.7,1.8c.5.6,1,1.3,1.5,2,.5.7.9,1.4,1.3,2.2s.7,1.5,1.1,2.2c.3.8.6,1.5.9,2.4s.4,1.6.6,2.4c.2.8.3,1.6.4,2.5.2,1.7.2,3.3,0,5,0,.8-.2,1.6-.4,2.5-.2.8-.3,1.6-.6,2.4-.3.8-.5,1.6-.9,2.4-.3.8-.7,1.5-1.1,2.2s-.8,1.5-1.3,2.2-.9,1.4-1.5,2c-.5.6-1.1,1.2-1.7,1.8s-1.2,1.2-1.9,1.7c-.6.5-1.3,1-2,1.5-.7.5-1.4.9-2.2,1.3s-1.5.7-2.2,1.1c-.8.3-1.6.6-2.4.9s-1.6.4-2.4.6-1.6.3-2.5.4c-.8,0-1.7.1-2.5.1h0ZM100.9,125.5c-.8,0-1.7,0-2.5-.1-.8,0-1.6-.2-2.5-.4s-1.6-.3-2.4-.6c-.8-.3-1.6-.5-2.4-.9-.8-.3-1.5-.7-2.2-1.1s-1.5-.8-2.2-1.3-1.4-.9-2-1.5c-.6-.5-1.3-1.1-1.9-1.7s-1.2-1.2-1.7-1.8-1-1.3-1.5-2c-.5-.7-.9-1.4-1.3-2.2s-.7-1.5-1.1-2.2c-.3-.8-.6-1.5-.9-2.4s-.4-1.6-.6-2.4-.3-1.6-.4-2.5c-.2-1.7-.2-3.3,0-5,0-.8.2-1.6.4-2.5s.3-1.6.6-2.4c.3-.8.5-1.6.9-2.4.3-.8.7-1.5,1.1-2.2s.8-1.5,1.3-2.2.9-1.4,1.5-2c.5-.6,1.1-1.2,1.7-1.8s1.2-1.2,1.9-1.7,1.3-1,2-1.5c.7-.5,1.4-.9,2.2-1.3s1.5-.7,2.2-1.1c.8-.3,1.6-.6,2.4-.9s1.6-.4,2.4-.6c.8-.2,1.6-.3,2.5-.4,1.7-.2,3.3-.2,5,0,.8,0,1.6.2,2.5.4.8.2,1.6.3,2.4.6.8.3,1.6.5,2.4.9.8.3,1.5.7,2.2,1.1s1.5.8,2.2,1.3,1.4.9,2,1.5c.6.5,1.3,1.1,1.9,1.7s1.2,1.2,1.7,1.8c.5.6,1,1.3,1.5,2,.5.7.9,1.4,1.3,2.2s.7,1.5,1.1,2.2.6,1.5.9,2.4.4,1.6.6,2.4c.2.8.3,1.6.4,2.5.2,1.7.2,3.3,0,5,0,.8-.2,1.6-.4,2.5s-.3,1.6-.6,2.4-.5,1.6-.9,2.4c-.3.8-.7,1.5-1.1,2.2s-.8,1.5-1.3,2.2-.9,1.4-1.5,2-1.1,1.2-1.7,1.8-1.2,1.2-1.9,1.7c-.6.5-1.3,1-2,1.5-.7.5-1.4.9-2.2,1.3s-1.5.7-2.2,1.1c-.8.3-1.6.6-2.4.9s-1.6.4-2.4.6-1.6.3-2.5.4c-.8,0-1.7.1-2.5.1ZM31.8,125.5c-.8,0-1.7,0-2.5-.1-.8,0-1.6-.2-2.5-.4-.8-.2-1.6-.3-2.4-.6-.8-.3-1.6-.5-2.4-.9-.8-.3-1.5-.7-2.2-1.1s-1.5-.8-2.2-1.3-1.4-.9-2-1.5c-.6-.5-1.3-1.1-1.9-1.7s-1.2-1.2-1.7-1.8-1-1.3-1.5-2c-.5-.7-.9-1.4-1.3-2.2s-.7-1.5-1.1-2.2c-.3-.8-.6-1.5-.9-2.4s-.4-1.6-.6-2.4-.3-1.6-.4-2.5c-.2-1.7-.2-3.3,0-5,0-.8.2-1.6.4-2.5s.3-1.6.6-2.4c.3-.8.5-1.6.9-2.4s.7-1.5,1.1-2.2.8-1.5,1.3-2.2.9-1.4,1.5-2c.5-.6,1.1-1.2,1.7-1.8s1.2-1.2,1.9-1.7,1.3-1,2-1.5c.7-.5,1.4-.9,2.2-1.3s1.5-.7,2.2-1.1c.8-.3,1.6-.6,2.4-.9s1.6-.4,2.4-.6,1.6-.3,2.5-.4c1.7-.2,3.3-.2,5,0,.8,0,1.6.2,2.5.4.8.2,1.6.3,2.4.6.8.3,1.6.5,2.4.9.8.3,1.5.7,2.2,1.1s1.5.8,2.2,1.3c.7.5,1.4.9,2,1.5.6.5,1.3,1.1,1.9,1.7s1.2,1.2,1.7,1.8,1,1.3,1.5,2,.9,1.4,1.3,2.2.7,1.5,1.1,2.2c.3.8.6,1.5.9,2.4s.4,1.6.6,2.4c.2.8.3,1.6.4,2.5.2,1.7.2,3.3,0,5,0,.8-.2,1.6-.4,2.5-.2.8-.3,1.6-.6,2.4s-.5,1.6-.9,2.4c-.3.8-.7,1.5-1.1,2.2s-.8,1.5-1.3,2.2-.9,1.4-1.5,2c-.5.6-1.1,1.2-1.7,1.8s-1.2,1.2-1.9,1.7c-.6.5-1.3,1-2,1.5-.7.5-1.4.9-2.2,1.3s-1.5.7-2.2,1.1c-.8.3-1.6.6-2.4.9s-1.6.4-2.4.6-1.6.3-2.5.4c-.8,0-1.7.1-2.5.1ZM170.1,56.6c-.8,0-1.7,0-2.5-.1s-1.6-.2-2.5-.4-1.6-.3-2.4-.6c-.8-.3-1.6-.5-2.4-.9s-1.5-.7-2.2-1.1-1.5-.8-2.2-1.3-1.4-.9-2-1.5c-.6-.5-1.3-1.1-1.9-1.7s-1.2-1.2-1.7-1.8c-.5-.6-1-1.3-1.5-2-.5-.7-.9-1.4-1.3-2.2s-.7-1.5-1.1-2.2c-.3-.8-.6-1.5-.9-2.4s-.4-1.6-.6-2.4-.3-1.6-.4-2.5c-.2-1.7-.2-3.3,0-5,0-.8.2-1.6.4-2.5.2-.8.3-1.6.6-2.4s.5-1.6.9-2.4c.3-.8.7-1.5,1.1-2.2s.8-1.5,1.3-2.2.9-1.4,1.5-2c.5-.6,1.1-1.2,1.7-1.8s1.2-1.2,1.9-1.7,1.3-1,2-1.5c.7-.5,1.4-.9,2.2-1.3s1.5-.7,2.2-1.1c.8-.3,1.6-.6,2.4-.9s1.6-.4,2.4-.6,1.6-.3,2.5-.4c1.7-.2,3.3-.2,5,0,.8,0,1.6.2,2.5.4s1.6.3,2.4.6,1.6.5,2.4.9c.8.3,1.5.7,2.2,1.1s1.5.8,2.2,1.3,1.4.9,2,1.5c.6.5,1.3,1.1,1.9,1.7s1.2,1.2,1.7,1.8c.5.6,1,1.3,1.5,2,.5.7.9,1.4,1.3,2.2s.7,1.5,1.1,2.2c.3.8.6,1.5.9,2.4s.4,1.6.6,2.4.3,1.6.4,2.5c.2,1.7.2,3.3,0,5,0,.8-.2,1.6-.4,2.5-.2.8-.3,1.6-.6,2.4-.3.8-.5,1.6-.9,2.4-.3.8-.7,1.5-1.1,2.2s-.8,1.5-1.3,2.2-.9,1.4-1.5,2c-.5.6-1.1,1.2-1.7,1.8s-1.2,1.2-1.9,1.7-1.3,1-2,1.5c-.7.5-1.4.9-2.2,1.3s-1.5.7-2.2,1.1c-.8.3-1.6.6-2.4.9s-1.6.4-2.4.6-1.6.3-2.5.4c-.8,0-1.7,0-2.5.1h0ZM100.9,56.6c-.8,0-1.7,0-2.5-.1-.8,0-1.6-.2-2.5-.4s-1.6-.3-2.4-.6c-.8-.3-1.6-.5-2.4-.9-.8-.3-1.5-.7-2.2-1.1s-1.5-.8-2.2-1.3-1.4-.9-2-1.5c-.6-.5-1.3-1.1-1.9-1.7s-1.2-1.2-1.7-1.8-1-1.3-1.5-2c-.5-.7-.9-1.4-1.3-2.2s-.7-1.5-1.1-2.2c-.3-.8-.6-1.5-.9-2.4s-.4-1.6-.6-2.4-.3-1.6-.4-2.5c-.2-1.7-.2-3.3,0-5,0-.8.2-1.6.4-2.5.2-.8.3-1.6.6-2.4.3-.8.5-1.6.9-2.4.3-.8.7-1.5,1.1-2.2s.8-1.5,1.3-2.2.9-1.4,1.5-2c.5-.6,1.1-1.2,1.7-1.8s1.2-1.2,1.9-1.7,1.3-1,2-1.5c.7-.5,1.4-.9,2.2-1.3s1.5-.7,2.2-1.1c.8-.3,1.6-.6,2.4-.9s1.6-.4,2.4-.6c.8-.2,1.6-.3,2.5-.4,1.7-.2,3.3-.2,5,0,.8,0,1.6.2,2.5.4.8.2,1.6.3,2.4.6.8.3,1.6.5,2.4.9.8.3,1.5.7,2.2,1.1s1.5.8,2.2,1.3,1.4.9,2,1.5c.6.5,1.3,1.1,1.9,1.7s1.2,1.2,1.7,1.8c.5.6,1,1.3,1.5,2,.5.7.9,1.4,1.3,2.2s.7,1.5,1.1,2.2.6,1.5.9,2.4.4,1.6.6,2.4.3,1.6.4,2.5c.2,1.7.2,3.3,0,5,0,.8-.2,1.6-.4,2.5-.2.8-.3,1.6-.6,2.4s-.5,1.6-.9,2.4c-.3.8-.7,1.5-1.1,2.2s-.8,1.5-1.3,2.2-.9,1.4-1.5,2c-.5.6-1.1,1.2-1.7,1.8s-1.2,1.2-1.9,1.7-1.3,1-2,1.5c-.7.5-1.4.9-2.2,1.3s-1.5.7-2.2,1.1c-.8.3-1.6.6-2.4.9s-1.6.4-2.4.6-1.6.3-2.5.4c-.8,0-1.7,0-2.5.1ZM31.8,56.6c-.8,0-1.7,0-2.5-.1s-1.6-.2-2.5-.4c-.8-.2-1.6-.3-2.4-.6-.8-.3-1.6-.5-2.4-.9-.8-.3-1.5-.7-2.2-1.1s-1.5-.8-2.2-1.3-1.4-.9-2-1.5c-.6-.5-1.3-1.1-1.9-1.7s-1.2-1.2-1.7-1.8-1-1.3-1.5-2c-.5-.7-.9-1.4-1.3-2.2s-.7-1.5-1.1-2.2-.6-1.5-.9-2.4-.4-1.6-.6-2.4-.3-1.6-.4-2.5c-.2-1.7-.2-3.3,0-5,0-.8.2-1.6.4-2.5.2-.8.3-1.6.6-2.4.3-.8.5-1.6.9-2.4s.7-1.5,1.1-2.2.8-1.5,1.3-2.2.9-1.4,1.5-2c.5-.6,1.1-1.2,1.7-1.8s1.2-1.2,1.9-1.7,1.3-1,2-1.5c.7-.5,1.4-.9,2.2-1.3s1.5-.7,2.2-1.1c.8-.3,1.6-.6,2.4-.9s1.6-.4,2.4-.6,1.6-.3,2.5-.4c1.7-.2,3.3-.2,5,0,.8,0,1.6.2,2.5.4.8.2,1.6.3,2.4.6.8.3,1.6.5,2.4.9.8.3,1.5.7,2.2,1.1s1.5.8,2.2,1.3c.7.5,1.4.9,2,1.5.6.5,1.3,1.1,1.9,1.7s1.2,1.2,1.7,1.8,1,1.3,1.5,2,.9,1.4,1.3,2.2.7,1.5,1.1,2.2c.3.8.6,1.5.9,2.4s.4,1.6.6,2.4.3,1.6.4,2.5c.2,1.7.2,3.3,0,5,0,.8-.2,1.6-.4,2.5-.2.8-.3,1.6-.6,2.4-.3.8-.5,1.6-.9,2.4-.3.8-.7,1.5-1.1,2.2s-.8,1.5-1.3,2.2-.9,1.4-1.5,2c-.5.6-1.1,1.2-1.7,1.8s-1.2,1.2-1.9,1.7-1.3,1-2,1.5c-.7.5-1.4.9-2.2,1.3s-1.5.7-2.2,1.1c-.8.3-1.6.6-2.4.9s-1.6.4-2.4.6-1.6.3-2.5.4-1.7,0-2.5.1Z"/>
  <path class="st7" d="M31.8,56.6c-.8,0-1.7,0-2.5-.1s-1.6-.2-2.5-.4c-.8-.2-1.6-.3-2.4-.6-.8-.3-1.6-.5-2.4-.9-.8-.3-1.5-.7-2.2-1.1s-1.5-.8-2.2-1.3-1.4-.9-2-1.5c-.6-.5-1.3-1.1-1.9-1.7s-1.2-1.2-1.7-1.8-1-1.3-1.5-2c-.5-.7-.9-1.4-1.3-2.2s-.7-1.5-1.1-2.2-.6-1.5-.9-2.4-.4-1.6-.6-2.4-.3-1.6-.4-2.5c-.2-1.7-.2-3.3,0-5,0-.8.2-1.6.4-2.5.2-.8.3-1.6.6-2.4.3-.8.5-1.6.9-2.4s.7-1.5,1.1-2.2.8-1.5,1.3-2.2.9-1.4,1.5-2c.5-.6,1.1-1.2,1.7-1.8s1.2-1.2,1.9-1.7,1.3-1,2-1.5c.7-.5,1.4-.9,2.2-1.3s1.5-.7,2.2-1.1c.8-.3,1.6-.6,2.4-.9s1.6-.4,2.4-.6,1.6-.3,2.5-.4c1.7-.2,3.3-.2,5,0,.8,0,1.6.2,2.5.4.8.2,1.6.3,2.4.6.8.3,1.6.5,2.4.9.8.3,1.5.7,2.2,1.1s1.5.8,2.2,1.3c.7.5,1.4.9,2,1.5.6.5,1.3,1.1,1.9,1.7s1.2,1.2,1.7,1.8,1,1.3,1.5,2,.9,1.4,1.3,2.2.7,1.5,1.1,2.2c.3.8.6,1.5.9,2.4s.4,1.6.6,2.4.3,1.6.4,2.5c.2,1.7.2,3.3,0,5,0,.8-.2,1.6-.4,2.5-.2.8-.3,1.6-.6,2.4-.3.8-.5,1.6-.9,2.4-.3.8-.7,1.5-1.1,2.2s-.8,1.5-1.3,2.2-.9,1.4-1.5,2c-.5.6-1.1,1.2-1.7,1.8s-1.2,1.2-1.9,1.7-1.3,1-2,1.5c-.7.5-1.4.9-2.2,1.3s-1.5.7-2.2,1.1c-.8.3-1.6.6-2.4.9s-1.6.4-2.4.6-1.6.3-2.5.4-1.7,0-2.5.1Z"/>
  <path class="st2" d="M100.9,56.6c-.8,0-1.7,0-2.5-.1-.8,0-1.6-.2-2.5-.4s-1.6-.3-2.4-.6c-.8-.3-1.6-.5-2.4-.9-.8-.3-1.5-.7-2.2-1.1s-1.5-.8-2.2-1.3-1.4-.9-2-1.5c-.6-.5-1.3-1.1-1.9-1.7s-1.2-1.2-1.7-1.8-1-1.3-1.5-2c-.5-.7-.9-1.4-1.3-2.2s-.7-1.5-1.1-2.2c-.3-.8-.6-1.5-.9-2.4s-.4-1.6-.6-2.4-.3-1.6-.4-2.5c-.2-1.7-.2-3.3,0-5,0-.8.2-1.6.4-2.5.2-.8.3-1.6.6-2.4.3-.8.5-1.6.9-2.4.3-.8.7-1.5,1.1-2.2s.8-1.5,1.3-2.2.9-1.4,1.5-2c.5-.6,1.1-1.2,1.7-1.8s1.2-1.2,1.9-1.7,1.3-1,2-1.5c.7-.5,1.4-.9,2.2-1.3s1.5-.7,2.2-1.1c.8-.3,1.6-.6,2.4-.9s1.6-.4,2.4-.6c.8-.2,1.6-.3,2.5-.4,1.7-.2,3.3-.2,5,0,.8,0,1.6.2,2.5.4.8.2,1.6.3,2.4.6.8.3,1.6.5,2.4.9.8.3,1.5.7,2.2,1.1s1.5.8,2.2,1.3,1.4.9,2,1.5c.6.5,1.3,1.1,1.9,1.7s1.2,1.2,1.7,1.8c.5.6,1,1.3,1.5,2,.5.7.9,1.4,1.3,2.2s.7,1.5,1.1,2.2.6,1.5.9,2.4.4,1.6.6,2.4.3,1.6.4,2.5c.2,1.7.2,3.3,0,5,0,.8-.2,1.6-.4,2.5-.2.8-.3,1.6-.6,2.4s-.5,1.6-.9,2.4c-.3.8-.7,1.5-1.1,2.2s-.8,1.5-1.3,2.2-.9,1.4-1.5,2c-.5.6-1.1,1.2-1.7,1.8s-1.2,1.2-1.9,1.7-1.3,1-2,1.5c-.7.5-1.4.9-2.2,1.3s-1.5.7-2.2,1.1c-.8.3-1.6.6-2.4.9s-1.6.4-2.4.6-1.6.3-2.5.4c-.8,0-1.7,0-2.5.1Z"/>
  <path class="st1" d="M170.1,56.6c-.8,0-1.7,0-2.5-.1s-1.6-.2-2.5-.4-1.6-.3-2.4-.6c-.8-.3-1.6-.5-2.4-.9s-1.5-.7-2.2-1.1-1.5-.8-2.2-1.3-1.4-.9-2-1.5c-.6-.5-1.3-1.1-1.9-1.7s-1.2-1.2-1.7-1.8c-.5-.6-1-1.3-1.5-2-.5-.7-.9-1.4-1.3-2.2s-.7-1.5-1.1-2.2c-.3-.8-.6-1.5-.9-2.4s-.4-1.6-.6-2.4-.3-1.6-.4-2.5c-.2-1.7-.2-3.3,0-5,0-.8.2-1.6.4-2.5.2-.8.3-1.6.6-2.4s.5-1.6.9-2.4c.3-.8.7-1.5,1.1-2.2s.8-1.5,1.3-2.2.9-1.4,1.5-2c.5-.6,1.1-1.2,1.7-1.8s1.2-1.2,1.9-1.7,1.3-1,2-1.5c.7-.5,1.4-.9,2.2-1.3s1.5-.7,2.2-1.1c.8-.3,1.6-.6,2.4-.9s1.6-.4,2.4-.6,1.6-.3,2.5-.4c1.7-.2,3.3-.2,5,0,.8,0,1.6.2,2.5.4s1.6.3,2.4.6,1.6.5,2.4.9c.8.3,1.5.7,2.2,1.1s1.5.8,2.2,1.3,1.4.9,2,1.5c.6.5,1.3,1.1,1.9,1.7s1.2,1.2,1.7,1.8c.5.6,1,1.3,1.5,2,.5.7.9,1.4,1.3,2.2s.7,1.5,1.1,2.2c.3.8.6,1.5.9,2.4s.4,1.6.6,2.4.3,1.6.4,2.5c.2,1.7.2,3.3,0,5,0,.8-.2,1.6-.4,2.5-.2.8-.3,1.6-.6,2.4-.3.8-.5,1.6-.9,2.4-.3.8-.7,1.5-1.1,2.2s-.8,1.5-1.3,2.2-.9,1.4-1.5,2c-.5.6-1.1,1.2-1.7,1.8s-1.2,1.2-1.9,1.7-1.3,1-2,1.5c-.7.5-1.4.9-2.2,1.3s-1.5.7-2.2,1.1c-.8.3-1.6.6-2.4.9s-1.6.4-2.4.6-1.6.3-2.5.4c-.8,0-1.7,0-2.5.1h0Z"/>
  <path class="st0" d="M31.8,125.5c-.8,0-1.7,0-2.5-.1-.8,0-1.6-.2-2.5-.4-.8-.2-1.6-.3-2.4-.6-.8-.3-1.6-.5-2.4-.9-.8-.3-1.5-.7-2.2-1.1s-1.5-.8-2.2-1.3-1.4-.9-2-1.5c-.6-.5-1.3-1.1-1.9-1.7s-1.2-1.2-1.7-1.8-1-1.3-1.5-2c-.5-.7-.9-1.4-1.3-2.2s-.7-1.5-1.1-2.2c-.3-.8-.6-1.5-.9-2.4s-.4-1.6-.6-2.4-.3-1.6-.4-2.5c-.2-1.7-.2-3.3,0-5,0-.8.2-1.6.4-2.5s.3-1.6.6-2.4c.3-.8.5-1.6.9-2.4s.7-1.5,1.1-2.2.8-1.5,1.3-2.2.9-1.4,1.5-2c.5-.6,1.1-1.2,1.7-1.8s1.2-1.2,1.9-1.7,1.3-1,2-1.5c.7-.5,1.4-.9,2.2-1.3s1.5-.7,2.2-1.1c.8-.3,1.6-.6,2.4-.9s1.6-.4,2.4-.6,1.6-.3,2.5-.4c1.7-.2,3.3-.2,5,0,.8,0,1.6.2,2.5.4.8.2,1.6.3,2.4.6.8.3,1.6.5,2.4.9.8.3,1.5.7,2.2,1.1s1.5.8,2.2,1.3c.7.5,1.4.9,2,1.5.6.5,1.3,1.1,1.9,1.7s1.2,1.2,1.7,1.8,1,1.3,1.5,2,.9,1.4,1.3,2.2.7,1.5,1.1,2.2c.3.8.6,1.5.9,2.4s.4,1.6.6,2.4c.2.8.3,1.6.4,2.5.2,1.7.2,3.3,0,5,0,.8-.2,1.6-.4,2.5-.2.8-.3,1.6-.6,2.4s-.5,1.6-.9,2.4c-.3.8-.7,1.5-1.1,2.2s-.8,1.5-1.3,2.2-.9,1.4-1.5,2c-.5.6-1.1,1.2-1.7,1.8s-1.2,1.2-1.9,1.7c-.6.5-1.3,1-2,1.5-.7.5-1.4.9-2.2,1.3s-1.5.7-2.2,1.1c-.8.3-1.6.6-2.4.9s-1.6.4-2.4.6-1.6.3-2.5.4c-.8,0-1.7.1-2.5.1Z"/>
  <path class="st6" d="M100.9,125.5c-.8,0-1.7,0-2.5-.1-.8,0-1.6-.2-2.5-.4s-1.6-.3-2.4-.6c-.8-.3-1.6-.5-2.4-.9-.8-.3-1.5-.7-2.2-1.1s-1.5-.8-2.2-1.3-1.4-.9-2-1.5c-.6-.5-1.3-1.1-1.9-1.7s-1.2-1.2-1.7-1.8-1-1.3-1.5-2c-.5-.7-.9-1.4-1.3-2.2s-.7-1.5-1.1-2.2c-.3-.8-.6-1.5-.9-2.4s-.4-1.6-.6-2.4-.3-1.6-.4-2.5c-.2-1.7-.2-3.3,0-5,0-.8.2-1.6.4-2.5s.3-1.6.6-2.4c.3-.8.5-1.6.9-2.4.3-.8.7-1.5,1.1-2.2s.8-1.5,1.3-2.2.9-1.4,1.5-2c.5-.6,1.1-1.2,1.7-1.8s1.2-1.2,1.9-1.7,1.3-1,2-1.5c.7-.5,1.4-.9,2.2-1.3s1.5-.7,2.2-1.1c.8-.3,1.6-.6,2.4-.9s1.6-.4,2.4-.6c.8-.2,1.6-.3,2.5-.4,1.7-.2,3.3-.2,5,0,.8,0,1.6.2,2.5.4.8.2,1.6.3,2.4.6.8.3,1.6.5,2.4.9.8.3,1.5.7,2.2,1.1s1.5.8,2.2,1.3,1.4.9,2,1.5c.6.5,1.3,1.1,1.9,1.7s1.2,1.2,1.7,1.8c.5.6,1,1.3,1.5,2,.5.7.9,1.4,1.3,2.2s.7,1.5,1.1,2.2.6,1.5.9,2.4.4,1.6.6,2.4c.2.8.3,1.6.4,2.5.2,1.7.2,3.3,0,5,0,.8-.2,1.6-.4,2.5s-.3,1.6-.6,2.4-.5,1.6-.9,2.4c-.3.8-.7,1.5-1.1,2.2s-.8,1.5-1.3,2.2-.9,1.4-1.5,2-1.1,1.2-1.7,1.8-1.2,1.2-1.9,1.7c-.6.5-1.3,1-2,1.5-.7.5-1.4.9-2.2,1.3s-1.5.7-2.2,1.1c-.8.3-1.6.6-2.4.9s-1.6.4-2.4.6-1.6.3-2.5.4c-.8,0-1.7.1-2.5.1Z"/>
  <path class="st8" d="M170.1,125.5c-.8,0-1.7,0-2.5-.1s-1.6-.2-2.5-.4c-.8-.2-1.6-.3-2.4-.6-.8-.3-1.6-.5-2.4-.9-.8-.3-1.5-.7-2.2-1.1s-1.5-.8-2.2-1.3-1.4-.9-2-1.5c-.6-.5-1.3-1.1-1.9-1.7s-1.2-1.2-1.7-1.8c-.5-.6-1-1.3-1.5-2-.5-.7-.9-1.4-1.3-2.2s-.7-1.5-1.1-2.2c-.3-.8-.6-1.5-.9-2.4s-.4-1.6-.6-2.4-.3-1.6-.4-2.5-.1-1.7-.1-2.5,0-1.7.1-2.5.2-1.6.4-2.5.3-1.6.6-2.4c.3-.8.5-1.6.9-2.4.3-.8.7-1.5,1.1-2.2s.8-1.5,1.3-2.2.9-1.4,1.5-2c.5-.6,1.1-1.2,1.7-1.8s1.2-1.2,1.9-1.7,1.3-1,2-1.5c.7-.5,1.4-.9,2.2-1.3s1.5-.7,2.2-1.1c.8-.3,1.6-.6,2.4-.9s1.6-.4,2.4-.6,1.6-.3,2.5-.4c1.7-.2,3.3-.2,5,0,.8,0,1.6.2,2.5.4.8.2,1.6.3,2.4.6.8.3,1.6.5,2.4.9.8.3,1.5.7,2.2,1.1s1.5.8,2.2,1.3,1.4.9,2,1.5c.6.5,1.3,1.1,1.9,1.7s1.2,1.2,1.7,1.8c.5.6,1,1.3,1.5,2,.5.7.9,1.4,1.3,2.2s.7,1.5,1.1,2.2c.3.8.6,1.5.9,2.4s.4,1.6.6,2.4c.2.8.3,1.6.4,2.5.2,1.7.2,3.3,0,5,0,.8-.2,1.6-.4,2.5-.2.8-.3,1.6-.6,2.4-.3.8-.5,1.6-.9,2.4-.3.8-.7,1.5-1.1,2.2s-.8,1.5-1.3,2.2-.9,1.4-1.5,2c-.5.6-1.1,1.2-1.7,1.8s-1.2,1.2-1.9,1.7c-.6.5-1.3,1-2,1.5-.7.5-1.4.9-2.2,1.3s-1.5.7-2.2,1.1c-.8.3-1.6.6-2.4.9s-1.6.4-2.4.6-1.6.3-2.5.4c-.8,0-1.7.1-2.5.1h0Z"/>
  <path class="st4" d="M31.8,194.5c-.8,0-1.7,0-2.5-.1-.8,0-1.6-.2-2.5-.4-.8-.2-1.6-.3-2.4-.6s-1.6-.5-2.4-.9c-.8-.3-1.5-.7-2.2-1.1s-1.5-.8-2.2-1.3-1.4-.9-2-1.5c-.6-.5-1.3-1.1-1.9-1.7s-1.2-1.2-1.7-1.8-1-1.3-1.5-2c-.5-.7-.9-1.4-1.3-2.2s-.7-1.5-1.1-2.2c-.3-.8-.6-1.5-.9-2.4s-.4-1.6-.6-2.4-.3-1.6-.4-2.5c-.2-1.7-.2-3.3,0-5,0-.8.2-1.6.4-2.5.2-.8.3-1.6.6-2.4.3-.8.5-1.6.9-2.4.3-.8.7-1.5,1.1-2.2s.8-1.5,1.3-2.2.9-1.4,1.5-2c.5-.6,1.1-1.2,1.7-1.8s1.2-1.2,1.9-1.7c.6-.5,1.3-1,2-1.5.7-.5,1.4-.9,2.2-1.3s1.5-.7,2.2-1.1c.8-.3,1.6-.6,2.4-.9s1.6-.4,2.4-.6,1.6-.3,2.5-.4c1.7-.2,3.3-.2,5,0,.8,0,1.6.2,2.5.4.8.2,1.6.3,2.4.6.8.3,1.6.5,2.4.9.8.3,1.5.7,2.2,1.1s1.5.8,2.2,1.3c.7.5,1.4.9,2,1.5.6.5,1.3,1.1,1.9,1.7s1.2,1.2,1.7,1.8,1,1.3,1.5,2,.9,1.4,1.3,2.2.7,1.5,1.1,2.2c.3.8.6,1.5.9,2.4s.4,1.6.6,2.4.3,1.6.4,2.5c.2,1.7.2,3.3,0,5,0,.8-.2,1.6-.4,2.5-.2.8-.3,1.6-.6,2.4-.3.8-.5,1.6-.9,2.4-.3.8-.7,1.5-1.1,2.2s-.8,1.5-1.3,2.2-.9,1.4-1.5,2c-.5.6-1.1,1.2-1.7,1.8s-1.2,1.2-1.9,1.7c-.6.5-1.3,1-2,1.5-.7.5-1.4.9-2.2,1.3s-1.5.7-2.2,1.1c-.8.3-1.6.6-2.4.9s-1.6.4-2.4.6-1.6.3-2.5.4c-.8,0-1.7.1-2.5.1Z"/>
  <path class="st3" d="M100.9,194.5c-.8,0-1.7,0-2.5-.1-.8,0-1.6-.2-2.5-.4s-1.6-.3-2.4-.6c-.8-.3-1.6-.5-2.4-.9-.8-.3-1.5-.7-2.2-1.1s-1.5-.8-2.2-1.3-1.4-.9-2-1.5c-.6-.5-1.3-1.1-1.9-1.7s-1.2-1.2-1.7-1.8-1-1.3-1.5-2c-.5-.7-.9-1.4-1.3-2.2s-.7-1.5-1.1-2.2c-.3-.8-.6-1.5-.9-2.4s-.4-1.6-.6-2.4-.3-1.6-.4-2.5c-.2-1.7-.2-3.3,0-5,0-.8.2-1.6.4-2.5.2-.8.3-1.6.6-2.4.3-.8.5-1.6.9-2.4s.7-1.5,1.1-2.2.8-1.5,1.3-2.2.9-1.4,1.5-2c.5-.6,1.1-1.2,1.7-1.8s1.2-1.2,1.9-1.7c.6-.5,1.3-1,2-1.5s1.4-.9,2.2-1.3,1.5-.7,2.2-1.1c.8-.3,1.6-.6,2.4-.9s1.6-.4,2.4-.6c.8-.2,1.6-.3,2.5-.4,1.7-.2,3.3-.2,5,0,.8,0,1.6.2,2.5.4.8.2,1.6.3,2.4.6.8.3,1.6.5,2.4.9.8.3,1.5.7,2.2,1.1s1.5.8,2.2,1.3,1.4.9,2,1.5c.6.5,1.3,1.1,1.9,1.7s1.2,1.2,1.7,1.8c.5.6,1,1.3,1.5,2,.5.7.9,1.4,1.3,2.2s.7,1.5,1.1,2.2.6,1.5.9,2.4.4,1.6.6,2.4.3,1.6.4,2.5c.2,1.7.2,3.3,0,5,0,.8-.2,1.6-.4,2.5-.2.8-.3,1.6-.6,2.4-.3.8-.5,1.6-.9,2.4s-.7,1.5-1.1,2.2-.8,1.5-1.3,2.2-.9,1.4-1.5,2c-.5.6-1.1,1.2-1.7,1.8s-1.2,1.2-1.9,1.7c-.6.5-1.3,1-2,1.5-.7.5-1.4.9-2.2,1.3s-1.5.7-2.2,1.1c-.8.3-1.6.6-2.4.9s-1.6.4-2.4.6-1.6.3-2.5.4c-.8,0-1.7.1-2.5.1Z"/>
  <path class="st9" d="M170.1,194.5c-.8,0-1.7,0-2.5-.1-.8,0-1.6-.2-2.5-.4-.8-.2-1.6-.3-2.4-.6-.8-.3-1.6-.5-2.4-.9-.8-.3-1.5-.7-2.2-1.1s-1.5-.8-2.2-1.3-1.4-.9-2-1.5c-.6-.5-1.3-1.1-1.9-1.7s-1.2-1.2-1.7-1.8c-.5-.6-1-1.3-1.5-2-.5-.7-.9-1.4-1.3-2.2s-.7-1.5-1.1-2.2c-.3-.8-.6-1.5-.9-2.4s-.4-1.6-.6-2.4-.3-1.6-.4-2.5c-.2-1.7-.2-3.3,0-5,0-.8.2-1.6.4-2.5.2-.8.3-1.6.6-2.4s.5-1.6.9-2.4.7-1.5,1.1-2.2.8-1.5,1.3-2.2.9-1.4,1.5-2c.5-.6,1.1-1.2,1.7-1.8s1.2-1.2,1.9-1.7c.6-.5,1.3-1,2-1.5.7-.5,1.4-.9,2.2-1.3s1.5-.7,2.2-1.1c.8-.3,1.6-.6,2.4-.9s1.6-.4,2.4-.6,1.6-.3,2.5-.4c1.7-.2,3.3-.2,5,0,.8,0,1.6.2,2.5.4.8.2,1.6.3,2.4.6.8.3,1.6.5,2.4.9.8.3,1.5.7,2.2,1.1s1.5.8,2.2,1.3,1.4.9,2,1.5c.6.5,1.3,1.1,1.9,1.7s1.2,1.2,1.7,1.8c.5.6,1,1.3,1.5,2,.5.7.9,1.4,1.3,2.2s.7,1.5,1.1,2.2c.3.8.6,1.5.9,2.4s.4,1.6.6,2.4.3,1.6.4,2.5c.2,1.7.2,3.3,0,5,0,.8-.2,1.6-.4,2.5-.2.8-.3,1.6-.6,2.4-.3.8-.5,1.6-.9,2.4-.3.8-.7,1.5-1.1,2.2s-.8,1.5-1.3,2.2-.9,1.4-1.5,2c-.5.6-1.1,1.2-1.7,1.8s-1.2,1.2-1.9,1.7c-.6.5-1.3,1-2,1.5-.7.5-1.4.9-2.2,1.3s-1.5.7-2.2,1.1c-.8.3-1.6.6-2.4.9s-1.6.4-2.4.6-1.6.3-2.5.4c-.8,0-1.7.1-2.5.1h0Z"/>
</svg>
